<svg width="455" height="108" viewBox="0 0 455 108" fill="none" xmlns="http://www.w3.org/2000/svg">
<path d="M57.875 105.125V102.25H55V99.375H60.75V102.25H69.375V96.5H60.75V93.625H69.375V87.875H60.75V90.75H55V87.875H57.875V85H72.25V87.875H75.125V93.625H72.25V96.5H75.125V102.25H72.25V105.125H57.875ZM78 105.125V90.75H80.875V87.875H83.75V85H92.375V87.875H95.25V90.75H98.125V105.125H92.375V99.375H83.75V105.125H78ZM83.75 96.5H92.375V90.75H89.5V87.875H86.625V90.75H83.75V96.5ZM109.625 90.75H112.5V93.625H115.375V96.5H118.25V102.25H121.125V105.125H115.375V102.25H112.5V96.5H106.75V105.125H101V85H106.75V93.625H109.625V90.75ZM121.125 85V87.875H118.25V90.75H112.5V87.875H115.375V85H121.125ZM124 105.125V85H141.25V87.875H144.125V96.5H141.25V99.375H129.75V105.125H124ZM129.75 96.5H138.375V87.875H129.75V96.5ZM147 105.125V85H152.75V90.75H158.5V105.125H147ZM161.375 105.125V85H167.125V105.125H161.375ZM152.75 102.25H155.625V93.625H152.75V102.25ZM170 105.125V85H187.25V87.875H190.125V93.625H187.25V96.5H190.125V102.25H187.25V105.125H170ZM175.75 93.625H184.375V87.875H175.75V93.625ZM175.75 102.25H184.375V96.5H175.75V102.25ZM193 105.125V90.75H195.875V87.875H198.75V85H207.375V87.875H210.25V90.75H213.125V105.125H207.375V99.375H198.75V105.125H193ZM198.75 96.5H207.375V90.75H204.5V87.875H201.625V90.75H198.75V96.5ZM216 105.125V85H218.875V93.625H221.75V87.875H224.625V85H233.25V87.875H236.125V102.25H233.25V105.125H224.625V102.25H221.75V96.5H218.875V105.125H216ZM227.5 102.25H230.375V87.875H227.5V102.25ZM256.25 108V105.125H239V85H244.75V102.25H247.625V85H250.5V102.25H253.375V85H259.125V102.25H262V108H256.25ZM262 105.125V85H267.75V96.5H270.625V93.625H273.5V90.75H276.375V85H282.125V105.125H276.375V96.5H273.5V99.375H270.625V102.25H267.75V105.125H262ZM287.875 87.875V85H302.25V87.875H287.875ZM285 105.125V90.75H290.75V99.375H293.625V96.5H296.5V93.625H299.375V90.75H305.125V105.125H299.375V99.375H296.5V102.25H293.625V105.125H285ZM339.625 105.125V87.875H333.875V85H351.125V87.875H345.375V105.125H339.625ZM354 105.125V85H374.125V87.875H359.75V93.625H371.25V96.5H359.75V102.25H374.125V105.125H354ZM379.875 105.125V85H397.125V90.75H394.25V87.875H385.625V105.125H379.875Z" fill="black"/>
<path d="M32.5 56.875V48.75H24.375V40.625H16.25V32.5H8.125V24.375H16.25V16.25H24.375V8.125H32.5V0H48.75V8.125H40.625V16.25H32.5V24.375H24.375V32.5H32.5V40.625H40.625V48.75H48.75V56.875H32.5ZM121.875 0V8.125H113.75V0H121.875ZM105.625 8.125H113.75V16.25H105.625V8.125ZM97.5 16.25H105.625V24.375H97.5V16.25ZM89.375 24.375H97.5V32.5H89.375V24.375ZM81.25 32.5H89.375V40.625H81.25V32.5ZM73.125 40.625H81.25V48.75H73.125V40.625ZM65 48.75H73.125V56.875H65V48.75ZM130 56.875V0H146.25V24.375H170.625V0H186.875V56.875H170.625V32.5H146.25V56.875H130ZM219.375 56.875V8.125H203.125V0H251.875V8.125H235.625V56.875H219.375ZM260 56.875V0H276.25V8.125H284.375V16.25H292.5V8.125H300.625V0H316.875V56.875H300.625V24.375H292.5V40.625H284.375V24.375H276.25V56.875H260ZM333.125 56.875V0H349.375V48.75H381.875V56.875H333.125ZM398.125 56.875V48.75H406.25V40.625H414.375V32.5H422.5V24.375H414.375V16.25H406.25V8.125H398.125V0H414.375V8.125H422.5V16.25H430.625V24.375H438.75V32.5H430.625V40.625H422.5V48.75H414.375V56.875H398.125Z" fill="black"/>
</svg>
